Coordinates
version=1
nRows=11
nColumns=42
inDegrees=yes

Units are S.I. units (second, meters, Newtons, ...)
If the header above contains a line with 'inDegrees', this indicates whether rotational values are in degrees (yes) or radians (no).

endheader
time	pelvis_tilt	pelvis_list	pelvis_rotation	pelvis_tx	pelvis_ty	pelvis_tz	hip_flexion_r	hip_adduction_r	hip_rotation_r	knee_angle_r	knee_adduction_r	knee_angle_r_beta	ankle_angle_r	subtalar_angle_r	mtp_angle_r	hip_flexion_l	hip_adduction_l	hip_rotation_l	knee_angle_l	knee_adduction_l	knee_angle_l_beta	ankle_angle_l	subtalar_angle_l	mtp_angle_l	lumbar_extension	lumbar_bending	lumbar_rotation	arm_flex_r	arm_add_r	arm_rot_r	elbow_flex_r	pro_sup_r	wrist_flex_r	wrist_dev_r	arm_flex_l	arm_add_l	arm_rot_l	elbow_flex_l	pro_sup_l	wrist_flex_l	wrist_dev_l
      1.20000000	     -1.72347149	      0.21320025	     -6.33300172	      0.00085990	      0.84472080	     -0.35000212	    -14.68543069	     -3.04117785	      4.30848803	     17.12628756	      9.85900199	      0.29891011	      6.83880451	     -1.14026836	     -7.55422962	     22.76330732	     -4.88017595	     -8.61963942	     11.75439861	     10.14379006	      0.20515296	      6.88600432	     -3.20372488	     -7.55422962	     -3.89836815	     -1.56602704	     10.86848437	     10.13734820	    -20.53540032	     11.91709713	     44.69242407	     90.00000001	      0.00000000	      0.00000000	    -10.78605875	     -9.70277937	    -24.70691769	     36.89672689	     90.00000001	      0.00000000	      0.00000000
      1.21000000	     -1.62483226	      0.63107535	     -6.31379283	      0.01389184	      0.84527767	     -0.35082701	    -14.12583334	     -3.70844173	      3.98378399	     19.90823682	     10.08021156	      0.34746428	      4.83982535	     -2.15756476	     -7.55280319	     22.26178769	     -4.19232503	     -8.00569611	     12.51497873	     10.18029834	      0.21842758	      6.58518710	     -3.68803117	     -7.55280319	     -3.86087216	     -2.08630194	     10.80412908	      9.75514623	    -20.35545740	     11.57535709	     44.57609146	     90.00000001	      0.00000000	      0.00000000	    -10.78737310	     -9.83020678	    -24.81878208	     36.75307160	     90.00000001	      0.00000000	      0.00000000
      1.22000000	     -1.36277222	      0.85868331	     -6.22655963	      0.02693391	      0.84615796	     -0.35174963	    -13.71631128	     -4.24262425	      3.91189680	     22.63745520	     10.51017764	      0.39509813	      2.82974864	     -2.89194698	     -7.55192602	     21.55496002	     -3.71579628	     -7.24245740	     13.33725407	     10.32468531	      0.23277900	      6.42599378	     -3.91257087	     -7.55192602	     -4.06692185	     -2.40791731	     10.60006916	      9.41041795	    -20.23374132	     11.31310250	     44.44381362	     90.00000001	      0.00000000	      0.00000000	    -10.80157577	     -9.93672178	    -24.84727349	     36.66952604	     90.00000001	      0.00000000	      0.00000000
      1.23000000	     -1.52016524	      1.54514301	     -6.15739211	      0.04009386	      0.84666842	     -0.35251632	    -12.35029333	     -5.11581564	      2.88541626	     26.34876966	     10.40962062	      0.45987278	      0.28494526	     -4.74967298	     -7.55024561	     21.18337913	     -2.73169980	     -6.48917980	     13.81421126	     10.31551231	      0.24110347	      5.78052307	     -4.97935634	     -7.55024561	     -3.66245429	     -3.22662304	     10.47808723	      8.80863478	    -19.83381380	     10.86567335	     44.22955401	     90.00000001	      0.00000000	      0.00000000	    -10.78142249	    -10.20740558	    -24.94376522	     36.47974354	     90.00000001	      0.00000000	      0.00000000
      1.24000000	     -1.59596692	      2.06395113	     -6.01533620	      0.05292884	      0.84743516	     -0.35362023	    -10.96820149	     -5.88877019	      1.99680374	     30.09801049	     10.38372999	      0.52530938	     -2.17142425	     -6.16901736	     -7.54446680	     20.45579897	     -1.88705064	     -4.42606847	     13.63780475	     10.64183858	      0.23802460	      4.34246082	     -8.27339636	     -7.54446680	     -3.44075329	     -3.81872588	     10.22663715	      8.32733094	    -19.55711138	     10.38041737	     43.93613688	     90.00000001	      0.00000000	      0.00000000	    -10.71806237	    -10.34896347	    -24.93657363	     36.32282777	     90.00000001	      0.00000000	      0.00000000
      1.25000000	     -1.33402433	      2.53445127	     -5.93155671	      0.06609373	      0.84855595	     -0.35441474	     -9.92478511	     -6.54219510	      1.16864070	     33.73432942	     10.04419299	      0.58877512	     -4.74367392	     -7.69921504	     -7.54333862	     19.49131651	     -1.20321254	     -3.94269013	     14.01165281	     10.78975215	      0.24454948	      4.47183037	     -8.31140019	     -7.54333862	     -3.58408021	     -4.41123323	      9.93090165	      7.86978688	    -19.29716143	     10.16795655	     43.67660094	     90.00000001	      0.00000000	      0.00000000	    -10.68099582	    -10.55470011	    -24.89645943	     36.26441913	     90.00000001	      0.00000000	      0.00000000
      1.26000000	     -1.18940595	      3.03722113	     -5.81553829	      0.07906405	      0.84961733	     -0.35531520	     -8.59327677	     -7.21460347	      0.31080774	     37.46833454	      9.57476020	      0.65394580	     -7.14423117	     -9.40776067	     -7.54233987	     18.58270642	     -0.48677787	     -3.37319764	     14.17785992	     10.93799303	      0.24745034	      4.55010927	     -8.51321965	     -7.54233987	     -3.61013161	     -5.00752261	      9.63622287	      7.36039454	    -19.02514860	      9.92474349	     43.33964503	     90.00000001	      0.00000000	      0.00000000	    -10.59941239	    -10.73846123	    -24.81855090	     36.21996038	     90.00000001	      0.00000000	      0.00000000
      1.27000000	     -1.17409914	      3.61479789	     -5.63955789	      0.09181651	      0.85059985	     -0.35635934	     -6.98951170	     -7.95111779	     -0.43837985	     41.19874760	      9.08106108	      0.71905379	     -9.41927845	    -11.37645377	     -7.54155543	     17.70048877	      0.31935661	     -2.61767840	     14.04265425	     11.11455951	      0.24509055	      4.47045769	     -8.99392895	     -7.54155543	     -3.51825986	     -5.66324791	      9.20335347	      6.87040207	    -18.73695842	      9.64027145	     42.99947255	     90.00000001	      0.00000000	      0.00000000	    -10.52322785	    -10.94073959	    -24.70820020	     36.18313067	     90.00000001	      0.00000000	      0.00000000
      1.28000000	     -1.15897101	      4.14651844	     -5.46384789	      0.10446439	      0.85161973	     -0.35737010	     -5.32329209	     -8.60898439	     -1.06719227	     44.77215652	      8.50584822	      0.78142154	    -11.24333070	    -13.24001138	     -7.54076564	     16.71393715	      1.05421412	     -1.89289369	     13.71791576	     11.30568133	      0.23942280	      4.47571965	     -9.48849491	     -7.54076564	     -3.44330320	     -6.25241794	      8.76680895	      6.37329687	    -18.45230908	      9.38415412	     42.58902598	     90.00000001	      0.00000000	      0.00000000	    -10.40595325	    -11.14464869	    -24.56259190	     36.15671579	     90.00000001	      0.00000000	      0.00000000
      1.29000000	     -1.08130381	      4.60925458	     -5.26753061	      0.11693782	      0.85276233	     -0.35837167	     -3.67600956	     -9.13439235	     -1.58805693	     48.13198655	      7.82770478	      0.84006164	    -12.54996670	    -14.80349114	     -7.54004431	     15.56218618	      1.69801452	     -1.24650427	     13.22192477	     11.51181370	      0.23076612	      4.59598065	     -9.81401393	     -7.54004431	     -3.48013536	     -6.75602019	      8.28376656	      5.91220693	    -18.19066613	      9.17517010	     42.15706854	     90.00000001	      0.00000000	      0.00000000	    -10.23285717	    -11.30086888	    -24.39349089	     36.15480725	     90.00000001	      0.00000000	      0.00000000
      1.30000000	     -1.19058945	      5.21770360	     -5.01978476	      0.12910022	      0.85370682	     -0.35962854	     -1.69582426	     -9.84775125	     -1.98819099	     51.40946315	      7.23628315	      0.89726440	    -13.31673725	    -15.98973309	     -7.53589649	     14.39114455	      2.57756553	     -0.00147389	     12.11008724	     11.66208796	      0.21136089	      3.90148140	    -11.58184688	     -7.53589649	     -3.31766492	     -7.37303115	      7.75102430	      5.43345533	    -17.89297685	      8.81403986	     41.69297293	     90.00000001	      0.00000000	      0.00000000	    -10.03819531	    -11.48379298	    -24.12044712	     36.16028177	     90.00000001	      0.00000000	      0.00000000
